<svg xmlns="http://www.w3.org/2000/svg" width="220" height="220" viewBox="0 0 220 220" fill="none">
  <defs>
    <linearGradient id="bg" x1="0%" y1="0%" x2="100%" y2="100%">
      <stop offset="0%" stop-color="#84fab0" />
      <stop offset="100%" stop-color="#8fd3f4" />
    </linearGradient>
  </defs>
  <rect width="220" height="220" fill="url(#bg)" rx="52" />
  <g transform="translate(55 55) scale(4.5)" stroke="#ffffff90" stroke-linecap="round" stroke-linejoin="round" stroke-width="2">
    <path d="M13 8c0-2.76-2.46-5-5.5-5S2 5.24 2 8h2l1-1l1 1h4m3-.86A5.82 5.82 0 0 1 16.5 6c3.04 0 5.5 2.24 5.5 5h-3l-1-1l-1 1h-3" />
    <path d="M5.89 9.71c-2.15 2.15-2.3 5.47-.35 7.43l4.24-4.25l.7-.7l.71-.71l2.12-2.12c-1.95-1.96-5.27-1.8-7.42.35" />
    <path d="M11 15.5c.5 2.5-.17 4.5-1 6.5h4c2-5.5-.5-12-1-14" />
  </g>
</svg>
